<svg width="62" height="63" viewBox="0 0 62 63" fill="none" xmlns="http://www.w3.org/2000/svg">
<path d="M60.5 61.0001H38.9097C30.2656 61.0001 21.9602 57.6382 15.75 51.6254L2.99785 39.8187C1.02697 37.8844 0.997222 34.7188 2.93135 32.7479C4.86547 30.7769 8.0311 30.7472 10.0021 32.6814L25.125 46.5001" stroke="#2B2E45" stroke-width="3" stroke-miterlimit="10" stroke-linecap="round" stroke-linejoin="round"/>
<path d="M40.75 47.6251H28.25C25.4886 47.6251 23.25 45.3866 23.25 42.6251C23.25 39.8637 25.4886 37.6251 28.25 37.6251H52.2344C56.7994 37.6251 60.5 41.3249 60.5 45.8899V46.0559V48.5001" stroke="#2B2E45" stroke-width="3" stroke-miterlimit="10" stroke-linecap="round" stroke-linejoin="round"/>
<path d="M25.6348 14.5C25.6348 10.0461 29.242 6.4355 33.6919 6.4355C38.1418 6.4355 41.749 10.0461 41.749 14.5C41.749 18.9539 38.1418 22.5645 33.6919 22.5645C29.242 22.5645 25.6348 18.9539 25.6348 14.5Z" stroke="#2B2E45" stroke-width="3" stroke-miterlimit="10" stroke-linecap="round" stroke-linejoin="round"/>
<path d="M45.375 18.9488L41.5772 16.1614C41.6895 15.6252 41.7492 15.0697 41.7492 14.5C41.7492 13.8209 41.6644 13.1619 41.5065 12.5319L45.375 9.52379L43.976 7.28741L39.5591 8.97566C38.5406 7.89241 37.2272 7.09053 35.7461 6.70091L34.9007 2.00004H32.3492L31.6939 6.68578C30.1409 7.08253 28.7682 7.93054 27.7239 9.08254L23.1254 7.72054L21.875 10.0023L25.8444 12.6767C25.709 13.2628 25.635 13.8725 25.635 14.5C25.635 15.1769 25.7195 15.8339 25.8764 16.462L22.1435 19.4758L23.335 21.5945L27.7925 19.99C28.8154 21.0908 30.1412 21.9052 31.6381 22.2992L32.4836 27H34.9007L35.6482 22.3239C37.288 21.9145 38.7276 21.0019 39.7967 19.76L44.3561 21.1104L45.375 18.9488Z" stroke="#2B2E45" stroke-width="3" stroke-miterlimit="10" stroke-linecap="round" stroke-linejoin="round"/>
</svg>
