<svg width="56" height="57" viewBox="0 0 56 57" fill="none" xmlns="http://www.w3.org/2000/svg">
<path fill-rule="evenodd" clip-rule="evenodd" d="M25.4375 7.16665H4.00016C2.52816 7.16665 1.3335 8.36132 1.3335 9.83332C1.3335 11.3053 2.52816 12.5 4.00016 12.5V41.8333C2.52816 41.8333 1.3335 43.028 1.3335 44.5C1.3335 45.972 2.52816 47.1666 4.00016 47.1666H18.8962L15.4482 50.6146C14.4082 51.6546 14.4082 53.3453 15.4482 54.3853C16.4882 55.4253 18.1788 55.4253 19.2188 54.3853L26.4375 47.1666H29.5628L36.7815 54.3853C37.8215 55.4253 39.5122 55.4253 40.5522 54.3853C41.5922 53.3453 41.5922 51.6546 40.5522 50.6146L37.1042 47.1666H52.0002C53.4722 47.1666 54.6668 45.972 54.6668 44.5C54.6668 43.028 53.4722 41.8333 52.0002 41.8333V12.5C53.4722 12.5 54.6668 11.3053 54.6668 9.83332C54.6668 8.36132 53.4722 7.16665 52.0002 7.16665H30.7735L30.7708 7.05999L30.6642 4.39332C30.6055 2.92399 29.3655 1.77732 27.8935 1.83599C26.4242 1.89465 25.2775 3.13465 25.3362 4.60665L25.4375 7.16665ZM46.6668 12.5V41.8333H9.3335V12.5H46.6668ZM16.5522 35.7187L22.6855 29.5853L26.2402 33.0707C27.2882 34.0973 28.9682 34.0867 30.0002 33.044L43.2268 19.7107C44.2642 18.6653 44.2562 16.9773 43.2108 15.94C42.1655 14.9027 40.4775 14.9107 39.4402 15.956L28.0802 27.4067L24.5335 23.9293C23.4882 22.9053 21.8162 22.9133 20.7815 23.948L12.7815 31.948C11.7415 32.988 11.7415 34.6786 12.7815 35.7187C13.8215 36.7587 15.5122 36.7587 16.5522 35.7187Z" fill="#2B2E45" stroke="#151727" stroke-width="2"/>
</svg>
