<svg width="58" height="51" viewBox="0 0 58 51" fill="none" xmlns="http://www.w3.org/2000/svg">
<path d="M2.76339 13.5993L2.76324 13.5994C1.29938 14.4063 0.483496 15.8187 0.483496 17.292C0.483496 18.7626 1.2993 20.1751 2.76338 20.9847C2.76339 20.9847 2.76341 20.9847 2.76342 20.9847L24.934 33.2354L24.9341 33.2354C27.4062 34.6024 30.5941 34.6024 33.0662 33.2354L33.0663 33.2354L55.2369 20.9847C56.701 20.1751 57.5168 18.7626 57.5168 17.292C57.5168 15.8187 56.701 14.4063 55.2371 13.5994L55.2369 13.5993L33.0664 1.346L2.76339 13.5993ZM2.76339 13.5993L24.934 1.346L2.76339 13.5993ZM53.4498 16.836L53.4487 16.8354L31.278 4.58471C29.8916 3.81843 28.1088 3.81843 26.7223 4.58472L4.55161 16.8354L4.55051 16.836C4.47731 16.8773 4.38932 16.9293 4.31977 16.9963C4.24767 17.0658 4.1835 17.1629 4.1835 17.292C4.1835 17.4202 4.24806 17.5173 4.31977 17.5864C4.3895 17.6535 4.47735 17.7054 4.55205 17.7462C4.55215 17.7463 4.55224 17.7463 4.55234 17.7464L26.7223 29.9966C28.1088 30.7629 29.8916 30.7629 31.2781 29.9966L53.448 17.7464C53.4481 17.7463 53.4481 17.7463 53.4482 17.7462C53.5229 17.7055 53.6108 17.6536 53.6806 17.5864C53.7523 17.5173 53.8168 17.4202 53.8168 17.292C53.8168 17.1629 53.7527 17.0658 53.6806 16.9963C53.611 16.9293 53.523 16.8773 53.4498 16.836ZM24.9341 1.34595C27.4062 -0.0184257 30.5941 -0.0184252 33.0663 1.34595H24.9341Z" fill="#2B2E45" stroke="#151727" stroke-width="0.3"/>
<path d="M45.8168 23.5C45.8168 22.4788 46.6457 21.65 47.6668 21.65C48.688 21.65 49.5168 22.4788 49.5168 23.5V35.5C49.5168 40.9398 45.1067 45.35 39.6668 45.35H18.3335C12.8937 45.35 8.4835 40.9398 8.4835 35.5V23.5C8.4835 22.4788 9.31234 21.65 10.3335 21.65C11.3547 21.65 12.1835 22.4788 12.1835 23.5V35.5C12.1835 38.8975 14.936 41.65 18.3335 41.65H39.6668C43.0643 41.65 45.8168 38.8975 45.8168 35.5V23.5Z" fill="#2B2E45" stroke="#151727" stroke-width="0.3"/>
<path d="M27.6931 19.4739L27.6929 19.4737C26.9703 18.7537 26.9703 17.5796 27.6929 16.8596L27.6932 16.8592C28.4133 16.1367 29.5873 16.1367 30.3074 16.8592L30.3076 16.8594L39.6409 26.1927L39.6413 26.1931C39.9887 26.5381 40.1836 27.009 40.1836 27.5V48.8333C40.1836 49.8545 39.3548 50.6833 38.3336 50.6833C37.3125 50.6833 36.4836 49.8545 36.4836 48.8333V28.3293V28.2672L36.4397 28.2233L27.6931 19.4739Z" fill="#2B2E45" stroke="#151727" stroke-width="0.3"/>
</svg>
