<svg width="20" height="22" viewBox="0 0 20 22" fill="none" xmlns="http://www.w3.org/2000/svg">
<g clip-path="url(#clip0_66_8223)">
<path d="M19.9951 20.6825V20.6817H20.0001V13.3466C20.0001 9.75831 19.2276 6.99414 15.0326 6.99414C13.0159 6.99414 11.6626 8.10081 11.1101 9.14998H11.0517V7.32914H7.07422V20.6817H11.2159V14.07C11.2159 12.3291 11.5459 10.6458 13.7017 10.6458C15.8259 10.6458 15.8576 12.6325 15.8576 14.1816V20.6825H19.9951Z" fill="white"/>
<path d="M0.330078 7.33008H4.47675V20.6826H0.330078V7.33008Z" fill="white"/>
<path d="M2.40167 0.682617C1.07583 0.682617 0 1.75845 0 3.08428C0 4.41012 1.07583 5.50845 2.40167 5.50845C3.7275 5.50845 4.80333 4.41012 4.80333 3.08428C4.8025 1.75845 3.72667 0.682617 2.40167 0.682617Z" fill="white"/>
</g>
<defs>
<clipPath id="clip0_66_8223">
<rect width="20" height="21" fill="white" transform="translate(0 0.5)"/>
</clipPath>
</defs>
</svg>
