<svg width="20" height="22" viewBox="0 0 20 22" fill="none" xmlns="http://www.w3.org/2000/svg">
<path d="M20 4.48137C19.2563 4.80762 18.4637 5.02387 17.6375 5.12887C18.4875 4.62137 19.1363 3.82387 19.4412 2.86262C18.6488 3.33512 17.7738 3.66887 16.8412 3.85512C16.0887 3.05387 15.0162 2.55762 13.8462 2.55762C11.5763 2.55762 9.74875 4.40012 9.74875 6.65887C9.74875 6.98387 9.77625 7.29637 9.84375 7.59387C6.435 7.42762 3.41875 5.79387 1.3925 3.30512C1.03875 3.91887 0.83125 4.62137 0.83125 5.37762C0.83125 6.79762 1.5625 8.05637 2.6525 8.78512C1.99375 8.77262 1.3475 8.58137 0.8 8.28012C0.8 8.29262 0.8 8.30887 0.8 8.32512C0.8 10.3176 2.22125 11.9726 4.085 12.3539C3.75125 12.4451 3.3875 12.4889 3.01 12.4889C2.7475 12.4889 2.4825 12.4739 2.23375 12.4189C2.765 14.0426 4.2725 15.2364 6.065 15.2751C4.67 16.3664 2.89875 17.0239 0.98125 17.0239C0.645 17.0239 0.3225 17.0089 0 16.9676C1.81625 18.1389 3.96875 18.8076 6.29 18.8076C13.835 18.8076 17.96 12.5576 17.96 7.14012C17.96 6.95887 17.9538 6.78387 17.945 6.61012C18.7588 6.03262 19.4425 5.31137 20 4.48137Z" fill="white"/>
</svg>
