<svg width="48" height="48" viewBox="0 0 48 48" fill="none" xmlns="http://www.w3.org/2000/svg">
<g clip-path="url(#clip0_64_5190)">
<path d="M23.9995 32.8953C22.6576 32.8953 21.5327 34.0201 21.5327 35.362C21.5327 36.704 22.6576 37.8288 23.9995 37.8288C25.2921 37.8288 26.4663 36.704 26.4071 35.4213C26.4663 34.0103 25.3513 32.8953 23.9995 32.8953Z" fill="#64ACFF"/>
<path d="M46.832 41.6376C48.3811 38.9636 48.391 35.7765 46.8517 33.1124L31.3998 6.35266C29.8704 3.65893 27.1076 2.06046 24.0093 2.06046C20.911 2.06046 18.1482 3.6688 16.6188 6.34279L1.1471 33.1321C-0.392172 35.8258 -0.382305 39.0326 1.1767 41.7066C2.71598 44.351 5.46891 45.9396 8.54746 45.9396H39.4119C42.5003 45.9396 45.273 44.3313 46.832 41.6376ZM43.4771 39.7036C42.6187 41.1837 41.0992 42.0619 39.402 42.0619H8.53759C6.86018 42.0619 5.35051 41.2034 4.5118 39.7529C3.66322 38.2827 3.65336 36.5264 4.50193 35.0463L19.9736 8.26689C20.8123 6.79668 22.3121 5.92838 24.0093 5.92838C25.6966 5.92838 27.2062 6.80655 28.0449 8.27676L43.5067 35.0562C44.3356 36.4968 44.3257 38.2334 43.4771 39.7036Z" fill="#52BBE8"/>
<path d="M23.3878 15.5784C22.2136 15.9139 21.4834 16.9796 21.4834 18.2722C21.5426 19.0517 21.5919 19.841 21.6511 20.6205C21.8189 23.5905 21.9866 26.5014 22.1544 29.4714C22.2136 30.4778 22.9931 31.208 23.9995 31.208C25.006 31.208 25.7953 30.4285 25.8447 29.4122C25.8447 28.8004 25.8447 28.238 25.9039 27.6163C26.0124 25.712 26.1308 23.8076 26.2394 21.9033C26.2986 20.6699 26.4071 19.4365 26.4663 18.2031C26.4663 17.7591 26.4071 17.3644 26.2394 16.9697C25.7361 15.8646 24.5619 15.3022 23.3878 15.5784Z" fill="#64ACFF"/>
</g>
<defs>
<clipPath id="clip0_64_5190">
<rect width="48" height="48" fill="white"/>
</clipPath>
</defs>
</svg>
