<svg width="48" height="48" viewBox="0 0 48 48" fill="none" xmlns="http://www.w3.org/2000/svg">
<path d="M42 9H23.787C23.1161 6.41963 20.7874 4.5 18 4.5C15.2126 4.5 12.8839 6.41963 12.213 9H6C5.17162 9 4.5 9.67163 4.5 10.5C4.5 11.3284 5.17162 12 6 12H12.213C12.8839 14.5804 15.2126 16.5 18 16.5C20.7874 16.5 23.1161 14.5804 23.787 12H42C42.8284 12 43.5 11.3284 43.5 10.5C43.5 9.67163 42.8284 9 42 9ZM18 13.5C16.3455 13.5 15 12.1545 15 10.5C15 8.8455 16.3455 7.5 18 7.5C19.6545 7.5 21 8.8455 21 10.5C21 12.1545 19.6545 13.5 18 13.5ZM42 22.5H35.787C35.1161 19.9196 32.7874 18 30 18C27.2126 18 24.8839 19.9196 24.213 22.5H6C5.17162 22.5 4.5 23.1716 4.5 24C4.5 24.8284 5.17162 25.5 6 25.5H24.213C24.8839 28.0804 27.2126 30 30 30C32.7874 30 35.1161 28.0804 35.787 25.5H42C42.8284 25.5 43.5 24.8284 43.5 24C43.5 23.1716 42.8284 22.5 42 22.5ZM30 27C28.3455 27 27 25.6545 27 24C27 22.3455 28.3455 21 30 21C31.6545 21 33 22.3455 33 24C33 25.6545 31.6545 27 30 27ZM42 36H23.787C23.1161 33.4196 20.7874 31.5 18 31.5C15.2126 31.5 12.8839 33.4196 12.213 36H6C5.17162 36 4.5 36.6716 4.5 37.5C4.5 38.3284 5.17162 39 6 39H12.213C12.8839 41.5804 15.2126 43.5 18 43.5C20.7874 43.5 23.1161 41.5804 23.787 39H42C42.8284 39 43.5 38.3284 43.5 37.5C43.5 36.6716 42.8284 36 42 36ZM18 40.5C16.3455 40.5 15 39.1545 15 37.5C15 35.8455 16.3455 34.5 18 34.5C19.6545 34.5 21 35.8455 21 37.5C21 39.1545 19.6545 40.5 18 40.5Z" fill="#358DE7"/>
<path d="M42 9H23.787C23.1161 6.41963 20.7874 4.5 18 4.5C15.2126 4.5 12.8839 6.41963 12.213 9H6C5.17162 9 4.5 9.67163 4.5 10.5C4.5 11.3284 5.17162 12 6 12H12.213C12.8839 14.5804 15.2126 16.5 18 16.5C20.7874 16.5 23.1161 14.5804 23.787 12H42C42.8284 12 43.5 11.3284 43.5 10.5C43.5 9.67163 42.8284 9 42 9ZM18 13.5C16.3455 13.5 15 12.1545 15 10.5C15 8.8455 16.3455 7.5 18 7.5C19.6545 7.5 21 8.8455 21 10.5C21 12.1545 19.6545 13.5 18 13.5ZM42 36H23.787C23.1161 33.4196 20.7874 31.5 18 31.5C15.2126 31.5 12.8839 33.4196 12.213 36H6C5.17162 36 4.5 36.6716 4.5 37.5C4.5 38.3284 5.17162 39 6 39H12.213C12.8839 41.5804 15.2126 43.5 18 43.5C20.7874 43.5 23.1161 41.5804 23.787 39H42C42.8284 39 43.5 38.3284 43.5 37.5C43.5 36.6716 42.8284 36 42 36ZM18 40.5C16.3455 40.5 15 39.1545 15 37.5C15 35.8455 16.3455 34.5 18 34.5C19.6545 34.5 21 35.8455 21 37.5C21 39.1545 19.6545 40.5 18 40.5Z" fill="#52BBE8"/>
</svg>
