<svg width="48" height="48" viewBox="0 0 48 48" fill="none" xmlns="http://www.w3.org/2000/svg">
<path d="M42 45.5C41.6022 45.5 41.2206 45.342 40.9393 45.0607C40.658 44.7794 40.5 44.3978 40.5 44V18C40.5 17.6022 40.658 17.2206 40.9393 16.9393C41.2206 16.658 41.6022 16.5 42 16.5C42.3978 16.5 42.7794 16.658 43.0607 16.9393C43.342 17.2206 43.5 17.6022 43.5 18V44C43.5 44.3978 43.342 44.7794 43.0607 45.0607C42.7794 45.342 42.3978 45.5 42 45.5Z" fill="#358DE7"/>
<path d="M6 45.5C5.60218 45.5 5.22064 45.342 4.93934 45.0607C4.65804 44.7794 4.5 44.3978 4.5 44V30C4.5 29.6022 4.65804 29.2206 4.93934 28.9393C5.22064 28.658 5.60218 28.5 6 28.5C6.39782 28.5 6.77936 28.658 7.06066 28.9393C7.34196 29.2206 7.5 29.6022 7.5 30V44C7.5 44.3978 7.34196 44.7794 7.06066 45.0607C6.77936 45.342 6.39782 45.5 6 45.5Z" fill="#358DE7"/>
<path d="M18 45.5C17.6022 45.5 17.2206 45.342 16.9393 45.0607C16.658 44.7794 16.5 44.3978 16.5 44V26C16.5 25.6022 16.658 25.2206 16.9393 24.9393C17.2206 24.658 17.6022 24.5 18 24.5C18.3978 24.5 18.7794 24.658 19.0607 24.9393C19.342 25.2206 19.5 25.6022 19.5 26V44C19.5 44.3978 19.342 44.7794 19.0607 45.0607C18.7794 45.342 18.3978 45.5 18 45.5Z" fill="#358DE7"/>
<path d="M30 45.5C29.6022 45.5 29.2206 45.342 28.9393 45.0607C28.658 44.7794 28.5 44.3978 28.5 44V22C28.5 21.6022 28.658 21.2206 28.9393 20.9393C29.2206 20.658 29.6022 20.5 30 20.5C30.3978 20.5 30.7794 20.658 31.0607 20.9393C31.342 21.2206 31.5 21.6022 31.5 22V44C31.5 44.3978 31.342 44.7794 31.0607 45.0607C30.7794 45.342 30.3978 45.5 30 45.5Z" fill="#358DE7"/>
<path d="M9.99981 21.5C9.69165 21.4999 9.39101 21.4048 9.13877 21.2278C8.88654 21.0507 8.69495 20.8003 8.59005 20.5106C8.48516 20.2208 8.47206 19.9058 8.55254 19.6083C8.63301 19.3108 8.80315 19.0454 9.03981 18.848L21.0398 8.848C21.3272 8.60824 21.6938 8.48472 22.0677 8.50175C22.4415 8.51878 22.7955 8.67512 23.0598 8.94L27.9998 13.878L36.9398 4.94C37.2242 4.67504 37.6003 4.53079 37.9889 4.53765C38.3775 4.5445 38.7482 4.70193 39.0231 4.97675C39.2979 5.25158 39.4553 5.62235 39.4622 6.01095C39.469 6.39956 39.3248 6.77565 39.0598 7.06L29.0598 17.06C28.9207 17.1993 28.7555 17.3099 28.5736 17.3853C28.3917 17.4607 28.1967 17.4995 27.9998 17.4995C27.8029 17.4995 27.6079 17.4607 27.4261 17.3853C27.2442 17.3099 27.0789 17.1993 26.9398 17.06L21.9078 12.03L10.9598 21.152C10.6908 21.3775 10.3508 21.5007 9.99981 21.5Z" fill="#52BBE8"/>
<path d="M38 13.5C37.6022 13.5 37.2206 13.342 36.9393 13.0607C36.658 12.7794 36.5 12.3978 36.5 12V7.5H32C31.6022 7.5 31.2206 7.34196 30.9393 7.06066C30.658 6.77936 30.5 6.39782 30.5 6C30.5 5.60218 30.658 5.22064 30.9393 4.93934C31.2206 4.65804 31.6022 4.5 32 4.5H38C38.3978 4.5 38.7794 4.65804 39.0607 4.93934C39.342 5.22064 39.5 5.60218 39.5 6V12C39.5 12.3978 39.342 12.7794 39.0607 13.0607C38.7794 13.342 38.3978 13.5 38 13.5Z" fill="#52BBE8"/>
</svg>
