<svg width="48" height="48" viewBox="0 0 48 48" fill="none" xmlns="http://www.w3.org/2000/svg">
<path d="M32 25.9998C30.8954 25.9998 30 26.8952 30 27.9998V33.9998C30 35.1044 30.8954 35.9998 32 35.9998C33.1046 35.9998 34 35.1044 34 33.9998V27.9998C34.0001 26.8952 33.1046 25.9998 32 25.9998Z" fill="white"/>
<path d="M32 37.9999C30.896 37.9999 30 38.8959 30 39.9999C30 41.1039 30.896 41.9998 32 41.9998C33.104 41.9998 34 41.1039 34 39.9999C34 38.8959 33.104 37.9999 32 37.9999Z" fill="white"/>
<path d="M41.8671 24.068C41.9544 23.3496 42.0002 22.6744 42.0002 21.9997V13.9997C42.0002 12.8951 41.1048 11.9997 40.0003 11.9997C38.8957 11.9997 38.0003 12.8951 38.0003 13.9997V21.3476C36.7499 20.7537 35.3975 20.34 33.9765 20.1392C33.9618 20.1372 33.947 20.1351 33.9322 20.1331C33.8257 20.1183 33.719 20.1049 33.6117 20.0927C33.5869 20.0898 33.562 20.0868 33.5372 20.0841C33.4397 20.0734 33.3418 20.0641 33.2437 20.0553C33.212 20.0525 33.1804 20.0494 33.1486 20.0469C33.0561 20.0394 32.9634 20.0332 32.8705 20.0275C32.8349 20.0253 32.7995 20.0226 32.7637 20.0208C32.6705 20.0158 32.5767 20.0122 32.483 20.009C32.449 20.0079 32.4152 20.0061 32.3811 20.0052C32.2547 20.0018 32.1277 19.9998 32.0004 19.9998V10.0001C32.0003 4.47744 27.5229 0 22.0003 0C16.4777 0 12.0002 4.47744 12.0002 10.0001V11.9958C12.0002 11.9971 12 11.9984 12 11.9997C12 12.001 12.0002 12.0023 12.0002 12.0037V19.9958C12.0002 19.9971 12 19.9984 12 19.9997C12 20.0011 12.0002 20.0024 12.0002 20.0037V22.0001C12.0002 26.1566 14.568 29.7425 18.2764 31.2198C18.0954 32.1183 18.0001 33.0479 18.0001 33.9998C18.0001 34.0865 18.0012 34.1703 18.0033 34.2545C18.0081 34.5247 18.0198 34.7934 18.0397 35.0598C18.0123 35.4352 18 35.7003 18 35.9998C18 36.5005 18.0273 36.9984 18.0814 37.4923C11.1321 35.7284 5.99997 29.4044 5.99997 21.9997V13.9997C5.99997 12.8951 5.10456 11.9997 3.99998 11.9997C2.89541 11.9997 2 12.8951 2 13.9997V21.9997C2 32.4255 10.1093 41.1178 20.4553 41.9205C22.979 45.592 27.2079 47.9999 32.0002 47.9999C39.7329 47.9999 46.0003 41.7324 46.0003 33.9998C46.0003 30.117 44.4197 26.6039 41.8671 24.068ZM16.0003 22.0002V21.9998H18.0001C19.1046 21.9998 20 21.1044 20 19.9998C20 18.8953 19.1046 17.9999 18.0001 17.9999H16.0003V13.9998H18.0001C19.1046 13.9998 20 13.1044 20 11.9998C20 10.8952 19.1046 9.99983 18.0001 9.99983H16.0003C16.0005 6.68658 18.687 4.00016 22.0003 4.00016C25.3137 4.00016 28.0002 6.68649 28.0004 9.99983H26.0002C24.8956 9.99983 24.0002 10.8952 24.0002 11.9998C24.0002 13.1044 24.8956 13.9998 26.0002 13.9998H28.0005V17.9999H26.0002C24.8956 17.9999 24.0002 18.8953 24.0002 19.9998C24.0002 20.7924 24.4624 21.4752 25.1309 21.7989C22.7986 23.1148 20.8818 25.0798 19.625 27.4491C17.4716 26.5317 16.0003 24.4273 16.0003 22.0002ZM32.0001 43.9999C26.7919 43.9999 22.5152 40.0196 22.0439 34.9345V34.8428C22.0188 34.524 22.006 34.3195 22.0018 34.1374C22.0012 34.0915 22 34.0459 22 33.9999C22 32.8499 22.1947 31.7455 22.5519 30.7171C22.5811 30.6574 22.6083 30.5963 22.6318 30.5329C23.8662 27.1996 26.7973 24.7515 30.3188 24.1541C30.3853 24.1429 30.4501 24.1275 30.5139 24.11C30.9989 24.0377 31.495 23.9999 32.0001 23.9999C32.1373 23.9999 32.2738 24.0035 32.41 24.0089C32.4293 24.0097 32.4487 24.0102 32.468 24.0111C32.5998 24.0172 32.731 24.026 32.8618 24.0371C32.8811 24.0388 32.9004 24.0405 32.9197 24.0423C33.0544 24.0546 33.1886 24.0692 33.322 24.0869C33.3291 24.0878 33.3363 24.089 33.3434 24.0899C35.2314 24.3442 36.9896 25.1315 38.4454 26.3616C38.4829 26.3933 38.5211 26.4232 38.5597 26.4516C40.6677 28.2849 42.0002 30.9866 42.0002 34C42.0002 39.5233 37.5237 43.9999 32.0001 43.9999Z" fill="#358DE7"/>
</svg>
