<svg width="64" height="65" viewBox="0 0 64 65" fill="none" xmlns="http://www.w3.org/2000/svg">
<path fill-rule="evenodd" clip-rule="evenodd" d="M29.4375 11.1667H8.00016C6.52816 11.1667 5.3335 12.3613 5.3335 13.8333C5.3335 15.3053 6.52816 16.5 8.00016 16.5V45.8333C6.52816 45.8333 5.3335 47.028 5.3335 48.5C5.3335 49.972 6.52816 51.1666 8.00016 51.1666H22.8962L19.4482 54.6146C18.4082 55.6546 18.4082 57.3453 19.4482 58.3853C20.4882 59.4253 22.1788 59.4253 23.2188 58.3853L30.4375 51.1666H33.5628L40.7815 58.3853C41.8215 59.4253 43.5122 59.4253 44.5522 58.3853C45.5922 57.3453 45.5922 55.6546 44.5522 54.6146L41.1042 51.1666H56.0002C57.4722 51.1666 58.6668 49.972 58.6668 48.5C58.6668 47.028 57.4722 45.8333 56.0002 45.8333V16.5C57.4722 16.5 58.6668 15.3053 58.6668 13.8333C58.6668 12.3613 57.4722 11.1667 56.0002 11.1667H34.7735L34.7708 11.06L34.6642 8.39332C34.6055 6.92399 33.3655 5.77732 31.8935 5.83599C30.4242 5.89465 29.2775 7.13465 29.3362 8.60665L29.4375 11.1667ZM50.6668 16.5V45.8333H13.3335V16.5H50.6668ZM20.5522 39.7187L26.6855 33.5853L30.2402 37.0707C31.2882 38.0973 32.9682 38.0867 34.0002 37.044L47.2268 23.7107C48.2642 22.6653 48.2562 20.9773 47.2108 19.94C46.1655 18.9027 44.4775 18.9107 43.4402 19.956L32.0802 31.4067L28.5335 27.9293C27.4882 26.9053 25.8162 26.9133 24.7815 27.948L16.7815 35.948C15.7415 36.988 15.7415 38.6786 16.7815 39.7187C17.8215 40.7587 19.5122 40.7587 20.5522 39.7187Z" fill="#2B2E45" stroke="#151727" stroke-width="2"/>
</svg>
