<svg width="64" height="65" viewBox="0 0 64 65" fill="none" xmlns="http://www.w3.org/2000/svg">
<g clip-path="url(#clip0_75_156)">
<path d="M48.6221 15.8773C46.9948 12.0687 44.4583 8.71723 41.235 6.1165C38.0117 3.51577 34.1998 1.74512 30.1332 0.959667C26.0667 0.174213 21.8696 0.397915 17.9096 1.61118C13.9496 2.82444 10.3475 4.99025 7.41887 7.91887C4.49025 10.8475 2.32444 14.4496 1.11118 18.4096C-0.102085 22.3696 -0.325787 26.5667 0.459667 30.6332C1.24512 34.6998 3.01577 38.5117 5.6165 41.735C8.21723 44.9583 11.5687 47.4948 15.3773 49.1221C17.0046 52.9307 19.541 56.2822 22.7644 58.8829C25.9877 61.4836 29.7996 63.2543 33.8661 64.0397C37.9327 64.8252 42.1298 64.6015 46.0898 63.3882C50.0498 62.1749 53.6519 60.0091 56.5805 57.0805C59.5091 54.1519 61.6749 50.5498 62.8882 46.5898C64.1015 42.6298 64.3252 38.4327 63.5397 34.3661C62.7543 30.2996 60.9836 26.4877 58.3829 23.2644C55.7822 20.041 52.4307 17.5046 48.6221 15.8773ZM5.33303 25.833C5.32782 21.6209 6.65426 17.5148 9.12279 14.1018C11.5913 10.6887 15.0756 8.14339 19.0776 6.82949C23.0796 5.5156 27.3946 5.50043 31.4057 6.78614C35.4169 8.07185 38.919 10.5926 41.4114 13.9882C37.6423 13.5684 33.8271 14.002 30.2483 15.2568C26.6695 16.5116 23.4188 18.5555 20.7372 21.2372C18.0555 23.9188 16.0116 27.1695 14.7568 30.7483C13.502 34.3271 13.0684 38.1423 13.4882 41.9114C10.9629 40.059 8.90889 37.6384 7.49218 34.8453C6.07547 32.0522 5.33582 28.9649 5.33303 25.833ZM45.333 25.833C45.3352 28.9563 44.6053 32.0366 43.2019 34.8268C41.7986 37.6171 39.7609 40.0396 37.2522 41.9001C34.7435 43.7605 31.8338 45.0072 28.7563 45.54C25.6788 46.0728 22.5193 45.877 19.5312 44.9682C18.4773 41.5032 18.3849 37.8169 19.2636 34.3034C20.1424 30.7899 21.9593 27.5812 24.5203 25.0203C27.0812 22.4593 30.2899 20.6424 33.8034 19.7636C37.3169 18.8849 41.0032 18.9773 44.4682 20.0312C45.0412 21.9118 45.3327 23.867 45.333 25.833ZM38.6664 59.1664C35.5345 59.1636 32.4472 58.4239 29.6541 57.0072C26.861 55.5905 24.4404 53.5365 22.588 51.0112C26.3571 51.431 30.1723 50.9974 33.7511 49.7426C37.3299 48.4878 40.5806 46.4439 43.2622 43.7622C45.9439 41.0806 47.9878 37.8299 49.2426 34.2511C50.4974 30.6723 50.931 26.8571 50.5112 23.088C53.9068 25.5804 56.4275 29.0825 57.7133 33.0937C58.999 37.1048 58.9838 41.4198 57.6699 45.4218C56.356 49.4238 53.8106 52.9081 50.3976 55.3766C46.9846 57.8451 42.8785 59.1716 38.6664 59.1664Z" fill="#2B2E45" stroke="#151727" stroke-width="2"/>
<path d="M34.667 24.5H29.3337C28.6264 24.5 27.9481 24.781 27.448 25.281C26.9479 25.7811 26.667 26.4594 26.667 27.1667C26.667 27.8739 26.9479 28.5522 27.448 29.0523C27.9481 29.5524 28.6264 29.8333 29.3337 29.8333H34.667C35.3742 29.8333 36.0525 29.5524 36.5526 29.0523C37.0527 28.5522 37.3337 27.8739 37.3337 27.1667C37.3337 26.4594 37.0527 25.7811 36.5526 25.281C36.0525 24.781 35.3742 24.5 34.667 24.5Z" fill="#2B2E45" stroke="#151727" stroke-width="2"/>
<path d="M34.667 35.1667H29.3337C28.6264 35.1667 27.9481 35.4476 27.448 35.9477C26.9479 36.4478 26.667 37.1261 26.667 37.8333C26.667 38.5406 26.9479 39.2189 27.448 39.719C27.9481 40.2191 28.6264 40.5 29.3337 40.5H34.667C35.3742 40.5 36.0525 40.2191 36.5526 39.719C37.0527 39.2189 37.3337 38.5406 37.3337 37.8333C37.3337 37.1261 37.0527 36.4478 36.5526 35.9477C36.0525 35.4476 35.3742 35.1667 34.667 35.1667Z" fill="#2B2E45" stroke="#151727" stroke-width="2"/>
</g>
<defs>
<clipPath id="clip0_75_156">
<rect width="64" height="64" fill="white" transform="translate(0 0.5)"/>
</clipPath>
</defs>
</svg>
