<svg width="64" height="65" viewBox="0 0 64 65" fill="none" xmlns="http://www.w3.org/2000/svg">
<path d="M5.76339 20.5993L5.76324 20.5994C4.29938 21.4063 3.4835 22.8187 3.4835 24.292C3.4835 25.7626 4.2993 27.1751 5.76338 27.9847C5.76339 27.9847 5.76341 27.9847 5.76342 27.9847L27.934 40.2354L27.9341 40.2354C30.4062 41.6024 33.5941 41.6024 36.0662 40.2354L36.0663 40.2354L58.2369 27.9847C59.701 27.1751 60.5168 25.7626 60.5168 24.292C60.5168 22.8187 59.701 21.4063 58.2371 20.5994L58.2369 20.5993L36.0664 8.346L5.76339 20.5993ZM5.76339 20.5993L27.934 8.346L5.76339 20.5993ZM56.4498 23.836L56.4487 23.8354L34.278 11.5847C32.8916 10.8184 31.1088 10.8184 29.7223 11.5847L7.55161 23.8354L7.55051 23.836C7.47731 23.8773 7.38932 23.9293 7.31977 23.9963C7.24767 24.0658 7.1835 24.1629 7.1835 24.292C7.1835 24.4202 7.24806 24.5173 7.31977 24.5864C7.3895 24.6535 7.47735 24.7054 7.55205 24.7462C7.55215 24.7463 7.55224 24.7463 7.55234 24.7464L29.7223 36.9966C31.1088 37.7629 32.8916 37.7629 34.2781 36.9966L56.448 24.7464C56.4481 24.7463 56.4481 24.7463 56.4482 24.7462C56.5229 24.7055 56.6108 24.6536 56.6806 24.5864C56.7523 24.5173 56.8168 24.4202 56.8168 24.292C56.8168 24.1629 56.7527 24.0658 56.6806 23.9963C56.611 23.9293 56.523 23.8773 56.4498 23.836ZM27.9341 8.34595C30.4062 6.98157 33.5941 6.98157 36.0663 8.34595H27.9341Z" fill="#2B2E45" stroke="#151727" stroke-width="0.3"/>
<path d="M48.8168 30.5C48.8168 29.4788 49.6457 28.65 50.6668 28.65C51.688 28.65 52.5168 29.4788 52.5168 30.5V42.5C52.5168 47.9398 48.1067 52.35 42.6668 52.35H21.3335C15.8937 52.35 11.4835 47.9398 11.4835 42.5V30.5C11.4835 29.4788 12.3123 28.65 13.3335 28.65C14.3547 28.65 15.1835 29.4788 15.1835 30.5V42.5C15.1835 45.8975 17.936 48.65 21.3335 48.65H42.6668C46.0643 48.65 48.8168 45.8975 48.8168 42.5V30.5Z" fill="#2B2E45" stroke="#151727" stroke-width="0.3"/>
<path d="M30.6931 26.4739L30.6929 26.4737C29.9703 25.7537 29.9703 24.5796 30.6929 23.8596L30.6932 23.8592C31.4133 23.1367 32.5873 23.1367 33.3074 23.8592L33.3076 23.8594L42.6409 33.1927L42.6413 33.1931C42.9887 33.5381 43.1836 34.009 43.1836 34.5V55.8333C43.1836 56.8545 42.3548 57.6833 41.3336 57.6833C40.3125 57.6833 39.4836 56.8545 39.4836 55.8333V35.3293V35.2672L39.4397 35.2233L30.6931 26.4739Z" fill="#2B2E45" stroke="#151727" stroke-width="0.3"/>
</svg>
